<svg id="Layer_1" data-name="Layer 1" xmlns="http://www.w3.org/2000/svg" xmlns:xlink="http://www.w3.org/1999/xlink" viewBox="0 0 332.2 435.38"><defs><style>.cls-1,.cls-2{stroke:#000;stroke-miterlimit:10;}.cls-2{fill:none;stroke-width:3px;}.cls-3{fill:url(#linear-gradient);}</style><linearGradient id="linear-gradient" x1="515.01" y1="250.18" x2="510.43" y2="504.24" gradientUnits="userSpaceOnUse"><stop offset="0" stop-color="#ff0"/><stop offset="1" stop-color="#ffff52"/></linearGradient></defs><polygon class="cls-1" points="141.7 348.7 166.1 433.57 190.5 348.7 141.7 348.7"/><path d="M612.73,352c-25.78,0-46.09-11.2-53-29.24-5-13.1-2.54-28.19,7-42.5s25.1-26.2,43.71-33.34c11.9-4.57,21.34-6.79,28.87-6.79,16.75,0,24.14,10.72,31.24,29.24,6.57,17.12,8.89,31.08,7.08,42.7-2.4,15.41-12.31,26.56-29.48,33.14a100,100,0,0,1-35.4,6.79Z" transform="translate(-346.5 -153.8)"/><path d="M639.29,240.62c16.46,0,23.75,10.61,30.78,28.92,15,39.13,7.78,63.73-22.11,75.2a99.56,99.56,0,0,1-35.24,6.75c-25.56,0-45.69-11.08-52.54-28.92-10.3-26.84,12.32-60.57,50.42-75.19,11.84-4.55,21.23-6.76,28.69-6.76m0-1c-7.58,0-17,2.2-29,6.82-38.68,14.84-61.51,49.09-51,76.49,7.23,18.86,28.38,29.56,53.47,29.56a99.78,99.78,0,0,0,35.59-6.82c38.68-14.84,33.2-49.08,22.69-76.48-7.24-18.86-15-29.57-31.71-29.57Z" transform="translate(-346.5 -153.8)"/><path class="cls-2" d="M534.5,191.5s1-17,24.5-29.5,28.5-4.5,29,0-3.5,7.5-3.5,7.5" transform="translate(-346.5 -153.8)"/><circle cx="234" cy="14.7" r="5.5"/><path d="M412.47,352a100.08,100.08,0,0,1-35.41-6.79c-30.2-11.59-37.53-36.39-22.4-75.84,7.11-18.52,14.5-29.24,31.24-29.24,7.53,0,17,2.22,28.88,6.79,38.36,14.72,61.1,48.74,50.7,75.84C458.56,340.79,438.25,352,412.47,352Z" transform="translate(-346.5 -153.8)"/><path d="M385.91,239.62v1c7.46,0,16.85,2.21,28.69,6.76C452.7,262,475.32,295.73,465,322.57c-6.85,17.84-27,28.92-52.55,28.92a99.55,99.55,0,0,1-35.23-6.75c-29.89-11.47-37.12-36.07-22.11-75.2,7-18.31,14.32-28.92,30.77-28.92v-1m0,0c-16.73,0-24.47,10.71-31.7,29.57-10.52,27.4-16,61.64,22.68,76.48a99.86,99.86,0,0,0,35.59,6.82c25.09,0,46.24-10.7,53.48-29.56,10.51-27.4-12.32-61.65-51-76.49-12.06-4.62-21.48-6.82-29.06-6.82Z" transform="translate(-346.5 -153.8)"/><path d="M639.29,479c-7.53,0-17-2.22-28.87-6.79-18.61-7.14-34.13-19-43.71-33.34s-12-29.4-7-42.5c6.93-18,27.24-29.24,53-29.24a100,100,0,0,1,35.4,6.79c17.17,6.59,27.08,17.74,29.48,33.14,1.81,11.62-.51,25.58-7.08,42.7C663.43,468.27,656,479,639.29,479Z" transform="translate(-346.5 -153.8)"/><path d="M612.73,366.62v1A99.56,99.56,0,0,1,648,374.38c29.89,11.47,37.12,36.06,22.11,75.19-7,18.32-14.32,28.92-30.78,28.92-7.46,0-16.85-2.21-28.69-6.75-38.1-14.62-60.72-48.35-50.42-75.2,6.85-17.83,27-28.92,52.54-28.92v-1m0,0c-25.09,0-46.24,10.71-53.47,29.57-10.52,27.4,12.31,61.64,51,76.48,12,4.63,21.47,6.82,29,6.82,16.73,0,24.47-10.7,31.71-29.56,10.51-27.4,16-61.65-22.69-76.49a100,100,0,0,0-35.59-6.82Z" transform="translate(-346.5 -153.8)"/><path d="M385.9,479c-16.74,0-24.13-10.72-31.24-29.24-15.13-39.44-7.8-64.25,22.4-75.84a100.08,100.08,0,0,1,35.41-6.79c25.78,0,46.09,11.21,53,29.24,5,13.1,2.54,28.19-7,42.5s-25.09,26.2-43.7,33.34c-11.9,4.57-21.35,6.79-28.88,6.79Z" transform="translate(-346.5 -153.8)"/><path d="M412.47,367.62c25.57,0,45.7,11.08,52.55,28.92,10.3,26.85-12.32,60.58-50.42,75.2-11.84,4.54-21.23,6.75-28.7,6.75-16.45,0-23.74-10.6-30.77-28.92-15-39.13-7.78-63.72,22.11-75.19a99.56,99.56,0,0,1,35.23-6.76m0-1a100.08,100.08,0,0,0-35.59,6.82c-38.67,14.84-33.2,49.09-22.68,76.49,7.23,18.86,15,29.56,31.7,29.56,7.58,0,17-2.19,29.06-6.82,38.67-14.84,61.5-49.08,51-76.48-7.24-18.86-28.39-29.57-53.48-29.57Z" transform="translate(-346.5 -153.8)"/><path class="cls-2" d="M490.7,191.5s-1-17-24.5-29.5-28.5-4.5-29,0,3.5,7.5,3.5,7.5" transform="translate(-346.5 -153.8)"/><circle cx="98.2" cy="14.7" r="5.5"/><path class="cls-3" d="M512.5,526.49c-26.93-.26-52.23-15.17-71.25-42S411.7,421.92,411.7,384c0-29,6.16-56.87,17.82-80.66,11.38-23.21,27.19-41,45.73-51.53l.48-.28-.32-.45A46.16,46.16,0,0,1,466.7,224c0-30.6,28.7-35.37,45.8-35.49h.19c17.11.12,45.81,4.89,45.81,35.49a46.16,46.16,0,0,1-8.71,27.08l-.33.45.49.28c18.54,10.5,34.35,28.32,45.73,51.53C607.34,327.13,613.5,355,613.5,384c0,37.92-10.5,73.61-29.56,100.5s-44.31,41.73-71.25,42h-.19Z" transform="translate(-346.5 -153.8)"/><path d="M512.58,189h.11c13.37.09,24.51,2.94,32.2,8.24,8.7,6,13.11,15,13.11,26.75a45.66,45.66,0,0,1-8.62,26.79l-.65.9,1,.55c18.45,10.46,34.2,28.2,45.53,51.32C606.85,327.28,613,355.09,613,384c0,37.82-10.46,73.41-29.46,100.21S539.46,525.73,512.69,526h-.18c-26.77-.26-51.93-15.09-70.85-41.78S412.2,421.82,412.2,384c0-28.91,6.14-56.72,17.77-80.44C441.3,280.44,457,262.7,475.5,252.24l1-.55-.65-.9A45.72,45.72,0,0,1,467.2,224c0-11.77,4.41-20.77,13.1-26.75,7.7-5.3,18.84-8.15,32.21-8.24h.07m.12-1h-.2c-25.63.18-46.3,10.27-46.3,36a46.79,46.79,0,0,0,8.8,27.37C437.59,272.57,411.2,324,411.2,384c0,78.65,45.29,142.46,101.3,143h.2c56-.53,101.3-64.34,101.3-143,0-60-26.4-111.43-63.81-132.63A46.72,46.72,0,0,0,559,224c0-25.72-20.67-35.81-46.3-36Z" transform="translate(-346.5 -153.8)"/></svg>